<?xml version="1.0" standalone="no"?>
<!DOCTYPE svg PUBLIC "-//W3C//DTD SVG 20010904//EN"
 "http://www.w3.org/TR/2001/REC-SVG-20010904/DTD/svg10.dtd">
<svg version="1.0" xmlns="http://www.w3.org/2000/svg"
 width="1280.000000pt" height="1280.000000pt" viewBox="0 0 1280.000000 1280.000000"
 preserveAspectRatio="xMidYMid meet">
<metadata>
Created by potrace 1.11, written by Peter Selinger 2001-2013
</metadata>
<g transform="translate(0.000000,1280.000000) scale(0.100000,-0.100000)"
fill="#000000" stroke="none">
<path d="M0 6400 l0 -6400 6400 0 6400 0 0 6400 0 6400 -6400 0 -6400 0 0
-6400z m4395 5078 c3 -24 37 -385 75 -803 38 -418 71 -779 74 -802 l5 -42 -84
-45 c-221 -119 -378 -239 -581 -441 -97 -97 -194 -205 -247 -276 -317 -426
-513 -929 -593 -1519 -22 -165 -31 -641 -15 -822 52 -589 231 -1218 500 -1756
141 -282 327 -573 517 -812 130 -163 448 -483 599 -604 230 -183 549 -379 785
-482 58 -25 108 -49 112 -52 4 -4 41 -388 83 -852 42 -465 77 -848 78 -852 2
-8 698 5050 698 5069 -1 10 -197 13 -930 15 l-929 3 1283 2550 c705 1402 1287
2551 1294 2553 6 2 85 -17 176 -42 1332 -374 2436 -1187 3208 -2361 541 -824
898 -1831 1002 -2827 18 -174 21 -942 5 -1109 -97 -976 -436 -1837 -1004
-2549 -132 -164 -437 -469 -606 -604 -145 -116 -388 -281 -537 -365 -221 -125
-546 -265 -788 -340 -131 -41 -152 -41 -160 2 -2 17 -36 378 -75 802 -38 424
-72 786 -75 807 l-5 36 85 46 c221 120 378 239 581 441 97 97 194 205 247 276
317 426 513 929 593 1519 22 165 31 641 15 822 -52 589 -231 1218 -500 1756
-141 282 -327 573 -517 812 -130 163 -448 483 -599 604 -230 183 -549 379
-785 482 -58 25 -108 49 -112 52 -5 5 -152 1573 -159 1701 -1 22 -698 -5017
-699 -5051 l0 -28 929 -2 929 -3 -1283 -2550 c-705 -1402 -1287 -2551 -1294
-2553 -33 -11 -525 145 -785 249 -1969 791 -3343 2691 -3602 4979 -25 224 -31
795 -10 1034 58 662 215 1247 486 1801 213 437 467 792 810 1136 464 464 966
772 1605 985 88 29 168 53 177 53 12 1 18 -10 23 -41z"/>
</g>
</svg>
