<svg version="1" xmlns="http://www.w3.org/2000/svg" width="1365.333" height="1365.333" viewBox="0 0 1024.000000 1024.000000"><path d="M298 3.6c-5.8 1.9-10.9 3.6-11.5 3.8-2.9.7-6.2 1.8-8 2.6-1.1.5-7.4 3-14 5.6-30.6 11.9-63.5 30.5-92 51.8-4.4 3.3-8.2 6.2-8.5 6.5-.3.3-3.2 2.8-6.5 5.6-3.3 2.7-7.8 6.6-10 8.5-6.8 5.9-29.8 29.2-35 35.4-2.8 3.3-6.4 7.6-8.1 9.5-10.5 12.3-25.2 33.2-37 52.7-9 14.9-25.5 48.6-31.9 64.8-7.9 20.5-18.2 52.8-21 66.4-.2.9-.9 3.9-1.5 6.7-.6 2.7-1.4 5.9-1.6 7-.2 1.1-.6 3.1-.9 4.5-.4 1.4-.8 3.4-.9 4.5-1.3 7.7-2.7 15.4-3.1 17.5-.3 1.4-.8 4.5-1.1 7-.3 2.5-.7 5.6-.9 7-.2 1.4-.7 5.2-1.1 8.5-.3 3.3-.8 7.3-1 9-2.7 24.7-2.7 86 0 109.5.3 1.9.7 6.2 1.1 9.5.9 7.5 1 8.7 2 15.5.5 3 .9 6.4 1.1 7.5.1 1.1.3 2 .4 2 .1 0 .3 1.1.4 2.5.5 4.9 1.8 11.7 5.2 28 16.9 81 48.2 156.9 91.7 222.5 7.6 11.4 15.8 23.3 18.4 26.5.6.8 5.2 6.7 10.2 13 4.9 6.3 10.1 12.8 11.6 14.5 1.5 1.6 4.8 5.5 7.3 8.5 21.3 25.1 56.2 57.8 83.2 78 1.9 1.4 4.5 3.4 5.9 4.6 4.9 4 30.7 21.2 42.1 28.1 21.2 12.9 34 19.6 61.5 32.3 3.9 1.8 13.3 5.7 21 8.7 7.7 3 14.9 5.8 16 6.3 5.5 2.5 50.9 16.1 58 17.4l3 .6 9.5-19.3c5.2-10.5 9.8-19.3 10.2-19.5.5-.2.8-.9.8-1.6 0-.7 5.2-11.5 11.6-24.1 6.3-12.5 27.3-54.1 46.5-92.4 19.3-38.3 35.5-70.1 36.1-70.8.6-.7.8-1.3.5-1.3-.7 0 5.8-12.7 7.5-14.8.6-.6.7-1.2.3-1.2-.3 0 .2-1.5 1.3-3.3 1.1-1.7 25.4-49.8 54-106.7 28.6-56.9 57.9-115.2 65.1-129.4 7.2-14.3 12.9-26.1 12.7-26.4-.3-.2-42.1-.5-93.1-.5l-92.7-.2.6-5.5c.3-3 .8-6.4 1-7.5.2-1.1.6-4 1-6.5 1.5-12.2 1.8-14.6 2.1-16 .1-.8.6-4 1-7s.9-6.2 1-7.1c.2-.9.6-4 1-7 .3-3 .9-6.8 1.2-8.4.6-4 .9-5.8 1.8-13.5.4-3.6.9-7.2 1-8.1.2-.9.6-4 1-6.9.4-2.9.8-6.2 1.1-7.3.2-1 .6-4.5 1-7.6.3-3.1.8-6.3.9-7.2.2-.9.6-4 1-7 .3-3 .8-6.1 1-6.9.3-.8.7-4 1-7 .3-3 .7-6.4.9-7.6.2-1.2.7-4.5 1.1-7.4.4-2.9.8-6.2 1.1-7.3.2-1 .6-4.5 1-7.6.3-3.1.8-6.3.9-7.2.2-.9.6-4 1-6.9.4-2.9.8-6.1 1-7 .2-.9.6-4.1 1-7.1.3-3 .8-6.5 1-7.9.2-1.4.7-4.5 1-7 .3-2.5.8-5.6 1-7 .2-1.4.9-6.3 1.5-11s1.3-9.5 1.5-10.6c.2-1.2.7-4.8 1-8 .4-3.3.9-6.8 1.1-7.8.2-1.1.8-5.6 1.4-10 .6-4.5 1.3-9.2 1.5-10.6.2-1.4.6-4.5 1-7 1.4-10.9 1.8-13.6 2.1-15.5.3-1.1.7-3.8.9-6 .3-2.2.8-5.7 1-7.8.3-2 .7-5.6 1-8 .3-2.3.8-5.3 1-6.7.2-1.4.7-4.4 1-6.8.8-6.7 1.6-12.5 2-15.2.2-1.4.6-4.5 1-7 .3-2.5.8-5.6 1-7 .2-1.4.7-4.9 1-7.9.4-3 .8-6.2 1-7.1.2-.9.6-4.1 1-7 .4-2.9.8-6 1-6.9.1-.9.6-4.5 1-8.1.4-3.6.9-6.7 1-7.1.2-.3.6-3 .9-6 .3-2.9.7-6.3 1-7.4.2-1.1.7-4.9 1.1-8.5.4-3.6.8-6.7 1-7 .1-.3.6-3 .9-6.1.4-3.1.8-6.5 1-7.5.2-1.1.7-4.4 1-7.5.4-3.1.8-6.6 1-7.6.3-1.1.7-4.4 1.1-7.3.4-2.9.8-6 1-6.9.1-.9.6-4.1.9-7.2.4-3.1.9-6.7 1.1-8 .9-4.2 1.8-15.9 1.3-15.9-.3 0-12.9 24.6-28.1 54.7-15.1 30.2-33.1 65.9-40 79.5-6.9 13.7-12.3 24.8-12 24.8.3 0-.1.7-.8 1.6-.7.9-11 21-22.9 44.7-24.2 48.2-119.2 237.2-139.1 276.6-7.1 14-12.7 25.7-12.4 25.9.2.3 42 .6 92.7.6l92.3.2-.1 3.9c-.1 3.7-1.1 12.3-2 16.8-.2 1.1-.6 4.3-.9 7.1-.3 2.8-.8 6.2-1 7.6-.2 1.4-.6 4.5-1 7-.3 2.5-.8 5.6-1 7-.2 1.4-.7 4.9-1 7.9-.4 3-.8 6.2-1 7.1-.2.9-.6 4.1-1 7-.4 2.9-.8 6-1 6.9-.1.9-.6 4.1-.9 7.2-.4 3.1-.8 6.6-1 7.6-.3 1.1-.7 4.4-1.1 7.3-.4 2.9-.8 6-1 6.9-.1.9-.6 4.1-.9 7.2-.4 3.1-.8 6.6-1 7.6-.3 1.1-.7 4.4-1.1 7.4-.3 3-.8 6.1-1 6.9-.2.8-.6 4-1 7.1-.3 3.1-.7 6.6-.9 7.6-.3 1.1-.7 4.4-1.1 7.4-.3 3-.8 6.1-1 6.9-.2.8-.6 4-1 7.1-.3 3.1-.7 6.6-.9 7.6-.3 1.1-.7 4.4-1.1 7.3-.4 2.9-.8 6-1 6.9-.1.9-.6 4.1-.9 7.2-.4 3.1-.8 6.5-1 7.5-.2 1.1-.7 4.4-1.1 7.4-.4 3-.9 6.2-1 7-.2.8-.6 4-.9 7.1-.4 3.1-.9 6.7-1.1 7.9-.2 1.2-.7 4.8-1.1 7.9-.3 3.1-.8 6.3-.9 7.2-.2.9-.6 4-1 6.9-.4 2.9-.8 6-1 6.9-.1.9-.6 4.1-1 7.1-.3 3-.8 6.6-1 8-.2 1.4-.6 4.5-1 7-.3 2.5-.8 5.6-1 7-.2 1.4-.7 4.4-1 6.7-.8 6.8-1.6 12.6-2 15.3-.2 1.4-.7 4.5-1 7-.3 2.5-.8 5.6-1 7-.2 1.4-.7 4.9-1 7.9-.4 3-.8 6.2-1 7.1-.2.9-.6 4.1-1 7-.4 2.9-.8 6-1 6.9-.1.9-.6 4.1-.9 7.2-.4 3.1-.8 6.6-1 7.6-.3 1.1-.7 4.4-1.1 7.3-.4 2.9-.9 6.2-1.1 7.4-.2 1.2-.6 4.1-.9 6.6-.9 7.6-1.5 12.3-2.5 17.8-.5 2.9-.9 5.6-.8 6 .2.6-.9 8.6-1.7 13.2-.1.8-.6 4-1 7s-.9 6.2-1 7c-.2.8-.6 4-.9 7.1-.4 3.1-.8 6.6-1 7.6-.3 1.1-.7 4.4-1.1 7.3-.4 2.9-.8 6-1 6.9-.1.9-.6 4.1-.9 7.2-.4 3.1-.9 6.7-1.2 8-.2 1.3-.7 5.1-1 8.4-.6 6.6-1.9 9.3-2 4.2 0-4.1-1.3-19.4-1.8-22.7-.3-1.4-.7-6.6-1.1-11.5-.7-10.3-1.2-16.1-1.9-22.5-.3-2.5-.8-8.1-1.1-12.5-.4-4.4-.8-9.1-1.1-10.5-.2-1.4-.6-6.3-.9-11-.4-4.7-.8-9.6-1-11-.2-1.4-.7-6.3-1.1-11-.3-4.7-.8-9.9-.9-11.5-.2-1.7-.6-6.6-.9-11-.4-4.4-.9-9.6-1.1-11.6-.2-2-.7-7.4-1.1-12-.3-4.6-.9-8.7-1.3-9-.3-.3-3.1-1.6-6.1-2.8-7.5-3.1-30.2-14.5-37.5-18.9-8.2-4.9-24.9-15.5-25.5-16.2-.3-.4-2.7-2.1-5.5-4-16.5-11.1-44.4-36.5-62-56.6-11.3-12.7-12.3-14-19-22.9-3.3-4.4-6.3-8.2-6.7-8.3-.5-.2-.8-1-.8-1.7s-.4-1.5-.8-1.7c-.5-.2-4-5-7.9-10.8-30.5-45.8-52.5-95.6-66.4-150.2-4-15.5-4.3-17-5.5-23.8-.4-1.9-.9-4.4-1.1-5.5-1.4-6.6-3.1-16.9-3.8-22-.6-5.2-1.6-12.4-2.1-15.4-2.9-19.2-2.3-74.4 1.2-95.1.3-1.9.7-5 .9-6.9.7-5.9 4.4-23.7 7.5-35.6 13.3-51.4 38.3-96.9 72.6-132.1 17.5-17.9 34.5-31 57.9-44.7 6.1-3.6 10.9-6.8 10.8-7.3 0-.5-.4-4.5-.8-8.9s-.8-9.6-1-11.5c-.2-1.9-.6-7.1-1-11.5-.3-4.4-.8-9.1-1-10.5-.3-1.4-.7-5.7-1-9.5-.3-3.9-.7-9-1-11.4-.2-2.4-.7-7.4-1-11.2-.3-3.7-.8-9-1-11.6-.3-2.6-.8-7.3-1-10.3-.3-3-.8-7.5-1-10-.2-2.5-.7-7.4-1-11-.3-3.6-.8-8.6-1.1-11.1-.2-2.5-.6-6.8-.8-9.5-.3-2.7-.8-8.3-1.2-12.4-.3-4.1-.8-8.9-.9-10.5-.2-1.7-.4-3.8-.4-4.8-.1-2.2-.7-2.1-13.1 1.9z"/><path d="M582.4 3.7c.9 4.6 1.4 8.4 2.1 16.3.4 4.1.8 8.8 1 10.5.2 1.6.6 7.5 1 13s.8 10.2 1 10.5c.2.3.6 4.8 1 10 .3 5.2.8 10.2 1 11 .2.8.7 5.8 1 11 .4 5.2.8 10.8.9 12.5 1.3 12.4 1.6 15.8 2.1 22 .6 8.2 1.3 16.2 2 22.5.3 2.5.8 7.9 1.1 12 .4 4.1.8 8.6.9 10 .1 1.4.3 4.1.4 6.1.1 3.3 1.8 5.1 6.1 6.4 5.8 1.8 25.8 12 43.3 22 11 6.3 34.5 23.1 46.2 33 61.6 51.9 108.8 124.6 135.4 208 2.8 8.8 5.3 17.1 5.6 18.4.2 1.3.9 3.9 1.5 5.7.6 1.8 1.3 4.5 1.6 6.1.3 1.5 1 4.6 1.6 6.8.5 2.2 1.2 4.8 1.4 5.7.2 1 .6 2.8.9 4 .3 1.3 1.2 6.1 2.1 10.8.9 4.7 1.8 9.2 1.9 10.2.2.9.7 3.8 1.1 6.5.3 2.6.8 5.7 1 6.8.2 1.1.7 4.3.9 7.1.3 2.8.7 6 .9 7.1 2.5 12.6 2.5 77.1.1 86.3-.2.8-.6 4.2-1 7.5-.9 8.5-1.4 11.8-3.7 22.5-1.1 5.2-2.2 10.8-2.4 12.5-1.1 6.6-9.7 34.2-14.5 46.2-11 27.7-26.6 55-43 75.3-10.9 13.6-27.7 30.5-40.4 40.5-2.7 2.2-5.2 4.2-5.5 4.5-2.3 2.3-20.5 14.1-30 19.5-4.7 2.6-9 5.4-9.6 6.1-.7.9-.8 3.3-.3 6.7.4 3 1 9.2 1.4 13.8.3 4.6.8 9.5 1 10.9.2 1.4.7 6.1 1 10.5.4 4.4.8 9.6 1 11.5.2 1.9.6 6.6.9 10.5.3 3.8.8 9 1.1 11.5 1.6 16.6 2.2 22.7 3 32.5.3 4.4.8 9.1 1 10.5.2 1.4.7 6.3 1.1 11 .3 4.7.7 9.2.9 10 .2.8.6 5.3.9 10 1.3 17 1.5 18 4.1 18 1.3 0 3.5-.4 5-1 1.4-.5 3.6-1.2 4.8-1.4 2.4-.5 18.5-6 28.7-9.9 20.2-7.6 45.6-20.1 64.5-31.7 34.2-20.9 66.9-48.5 92.6-77.9 3.5-4.1 6.9-7.9 7.4-8.5.6-.6 2.3-2.9 3.9-5.1 1.7-2.2 3.3-4.2 3.6-4.5 1.1-.9 9.5-12.4 16.1-22 27.7-40.1 50.7-90.8 64.1-141 1.1-4.1 2.1-8.2 2.3-9.1.2-.8 1-4.4 1.9-8 2.5-10.1 6.2-29.2 7.1-36.4.3-2.2.7-4.7 1-5.5.2-.8.7-4.4 1-8 .4-3.6.9-7.3 1.1-8.3 2.7-14.2 2.7-113.1 0-127.2-.2-1.1-.7-5.1-1.1-9-.4-3.8-.8-7.2-1-7.5-.1-.3-.6-2.8-.9-5.5-.6-4.8-1.4-9.7-2.3-14-.2-1.1-.6-3.6-.9-5.5-.3-1.9-.9-5.3-1.4-7.5-.5-2.2-1.1-5.4-1.4-7-.7-3.9-1.1-5.6-3.1-14-.9-3.9-1.8-7.8-2-8.7-4.8-23.9-23.2-77.8-37.9-111.1-9-20.3-21.9-45.4-32.2-62.5-2.4-4-4.4-7.5-4.4-7.8 0-.3-.4-1-1-1.7-.5-.7-5.5-8.2-11.1-16.7-9.3-14.1-30-42.6-34.6-47.5-1-1.1-2.8-3.2-3.9-4.7-12.8-16.5-44.8-49.2-65.9-67.2-4.4-3.8-9.3-8-11-9.4-1.6-1.4-9.2-7.4-17-13.2-57.3-43.3-119.9-74-191-93.4-15.8-4.4-15.8-4.4-15.1-.9z"/></svg>